PathFileType	4	(X/Y/Z)	F:\MotionCapture\20160217\3\Generated_files\2_Test04-Dynamic.trc
DataRate	CameraRate	NumFrames	NumMarkers	Units	OrigDataRate	OrigDataStartFrame	OrigNumFrames
120.00	120.00	       5	39	mm	120.00	213	       849
Frame#	Time	Top.Head			Front.Head			Rear.Head			R.Shoulder			R.Offset			R.Elbow			R.Wrist			L.Shoulder			L.Elbow			L.Wrist			R.ASIS			L.ASIS			V.Sacral			R.Thigh			R.Knee			R.Shank			R.Ankle			R.Heel			R.Toe			L.Thigh			L.Knee			L.Shank			L.Ankle			L.Heel			L.Toe			R1			R2			R3			R4			R5			R6			R7			L1			L2			L3			L4			L5			L6			L7			V_Mid_ASIS			V_Pelvis_Origin			V_R.Hip_JC			V_L.Hip_JC			V_R.Knee_JC			V_L.Knee_JC			V_R.Ankle_JC			V_L.Ankle_JC			V_Mid_Hip			V_Mid_Shoulder			V_R.Hand			V_L.Hand			V_R.Toe_Offset_Static			V_L.Toe_Offset_Static			V_R.Toe_Offset			V_L.Toe_Offset			
		X1	Y1	Z1	X2	Y2	Z2	X3	Y3	Z3	X4	Y4	Z4	X5	Y5	Z5	X6	Y6	Z6	X7	Y7	Z7	X8	Y8	Z8	X9	Y9	Z9	X10	Y10	Z10	X11	Y11	Z11	X12	Y12	Z12	X13	Y13	Z13	X14	Y14	Z14	X15	Y15	Z15	X16	Y16	Z16	X17	Y17	Z17	X18	Y18	Z18	X19	Y19	Z19	X20	Y20	Z20	X21	Y21	Z21	X22	Y22	Z22	X23	Y23	Z23	X24	Y24	Z24	X25	Y25	Z25	X26	Y26	Z26	X27	Y27	Z27	X28	Y28	Z28	X29	Y29	Z29	X30	Y30	Z30	X31	Y31	Z31	X32	Y32	Z32	X33	Y33	Z33	X34	Y34	Z34	X35	Y35	Z35	X36	Y36	Z36	X37	Y37	Z37	X38	Y38	Z38	X39	Y39	Z39	

213	1.767	2467.41040	155.65247	1742.85950	2343.46533	154.53868	1677.06970	2564.03296	147.85284	1658.06128	2471.20142	349.39603	1428.07397	2605.76147	79.88777	1284.52271	2497.68140	441.64066	1099.26990	2369.37402	409.83905	871.47028	2456.85718	-60.99121	1435.24463	2463.38208	-156.35289	1110.76721	2355.51758	-136.88657	876.99591	2397.49536	290.80865	962.14380	2391.93750	2.87906	964.63074	2619.72070	141.19334	954.59998	2372.44336	249.36829	581.93958	2445.20044	306.31003	471.42175	2467.56470	237.76474	238.23402	2530.32349	319.16293	76.35562	2598.80664	260.74384	47.95407	2389.20435	299.82443	55.50948	2347.95923	34.88910	633.38507	2432.34766	-25.24316	474.61105	2429.82422	42.43541	328.62769	2520.84937	-37.50179	71.31661	2586.63086	19.24216	50.08075	2385.97241	-37.40489	55.56147	2341.66138	278.16556	53.00753	2382.45947	262.31290	61.05458	2481.50781	228.42778	64.40895	2558.37891	229.79062	49.61828	2567.56641	303.67517	50.42803	2488.83423	328.10269	44.59598	2424.39331	341.66815	43.74174	2338.68018	-14.21006	52.70717	2373.28223	-0.55307	57.05496	2464.49243	47.20349	58.21038	2549.00220	51.06255	48.46461	2561.09082	-21.17039	51.65955	2483.70898	-49.35643	37.86157	2427.18213	-66.06929	49.12606																																																	2923.30786	156.68958	-99.12301	1541.28577	63.17949	406.23141	
214	1.775	2466.51123	154.93471	1742.82483	2343.17749	154.40474	1676.81555	2563.16577	146.83858	1658.06226	2470.60767	349.05984	1428.22864	2605.12256	79.54111	1284.65686	2495.91406	441.48038	1099.35681	2365.88696	407.70035	872.33160	2455.97339	-62.17226	1435.23010	2463.67847	-157.15958	1111.18652	2355.73657	-138.76381	877.21606	2397.21167	289.90677	962.13013	2390.78540	1.63637	964.39752	2619.33398	140.11385	954.81403	2372.59839	249.13765	581.80988	2445.60010	306.12366	471.67908	2467.70288	237.85342	238.24982	2532.71777	321.44034	77.99525	2599.05469	260.73843	47.91975	2389.59180	299.37958	56.10321	2346.80518	34.07704	633.35608	2430.66040	-26.00907	474.49020	2429.39355	42.35098	328.47812	2520.98682	-37.50546	71.24005	2586.89551	19.21630	50.01844	2386.25562	-37.30667	55.81353	2342.19238	278.51938	54.11141	2382.61157	262.95303	61.47049	2481.88867	228.67091	64.50862	2558.52808	229.82892	49.67518	2567.68384	303.77271	50.35694	2489.24146	328.48212	44.72816	2424.95874	341.72723	44.12039	2338.90649	-13.60893	53.46099	2373.45215	-0.34749	57.49858	2464.17163	46.69788	58.61119	2549.18921	51.08777	48.53659	2561.22778	-21.25801	51.66639	2483.84473	-49.23421	38.06931	2427.60132	-65.87871	49.59066																																																	2922.93335	156.75996	-98.89239	1538.78247	62.70623	407.11090	2477.99316	-73.06987	30.28977	998.33636	414.23029	469.32083	
215	1.783	2464.99097	153.57645	1742.75427	2341.73291	153.18188	1676.65625	2562.21265	145.73378	1658.12988	2468.46851	347.71921	1428.37122	2604.32568	78.47970	1284.82556	2493.44409	440.50488	1099.18372	2363.07520	406.42294	872.92798	2454.75781	-63.11550	1435.10657	2464.23730	-159.21239	1111.40125	2356.36230	-140.66806	877.19165	2395.29932	288.74176	962.21844	2390.06396	0.30204	963.98431	2618.76001	139.13156	955.06714	2372.61182	249.07880	581.83722	2445.92236	305.89651	471.90414	2467.62256	238.06535	238.33391	2530.61963	319.29175	76.16143	2599.23291	260.70154	47.78569	2389.40552	300.41156	56.25266	2346.25635	33.54379	633.20691	2429.51611	-26.34443	474.28815	2428.77393	42.17617	328.16022	2521.08130	-37.39936	71.16501	2587.03564	19.18573	49.86361	2386.50049	-37.17498	55.92770	2342.65845	279.79968	55.02782	2382.46582	263.36319	61.84225	2482.03979	228.78851	64.57073	2558.68042	229.87781	49.73008	2567.80542	303.86270	50.27058	2489.38843	329.02866	44.72655	2425.67163	342.00140	44.62761	2338.97363	-13.43511	53.76360	2373.61108	-0.24414	57.89529	2464.61011	46.70019	58.80450	2549.39282	51.08502	48.57265	2561.36646	-21.27878	51.67464	2483.90601	-48.72997	38.23871	2427.80371	-65.56128	49.97202																																																	2923.24146	157.18170	-98.19098	1535.64575	61.42900	408.12479	998.02527	414.28177	469.31897	
216	1.792	2463.80151	152.45740	1742.78772	2340.22192	151.74107	1676.91589	2560.87036	144.66202	1658.19153	2467.01245	345.97531	1428.33667	2603.53833	77.64027	1285.16016	2491.33008	439.92557	1099.60376	2359.33789	404.13522	873.78766	2454.49219	-64.41454	1435.23462	2464.31006	-160.20682	1111.06689	2357.15503	-142.60040	877.04199	2394.32471	287.51245	962.22009	2390.84253	-0.81457	963.59918	2618.33911	138.22531	955.27710	2372.59741	248.86665	581.64362	2446.38037	305.47278	472.13425	2467.70190	238.12535	238.30447	2530.93140	319.28275	75.91134	2599.42480	260.79086	47.64729	2390.31543	300.66141	57.13332	2344.80835	33.03320	633.23907	2428.51807	-26.66633	474.12189	2428.33008	42.04404	327.90552	2521.04248	-38.02525	71.75496	2587.13818	19.18097	49.73883	2386.65796	-37.18747	56.25302	2343.42505	280.65662	56.00422	2382.97754	263.79553	62.67323	2482.17651	229.01559	64.68185	2558.86572	229.97363	49.86065	2568.02466	303.95297	50.09861	2490.31104	327.99918	44.10493	2426.13599	342.08267	44.77824	2339.04077	-13.38206	53.94712	2373.94897	-0.20718	58.33597	2465.16235	46.98325	59.05726	2549.50537	51.09799	48.55161	2561.48413	-21.26119	51.67043	2484.04761	-48.50213	38.41908	2428.77100	-65.57239	52.03542																																																	2927.73584	156.92055	-98.34386	1531.94788	60.33189	408.83359	3199.64404	242.30824	-149.43823	998.66663	414.19409	469.39948	
217	1.800	2463.09131	151.60187	1742.77979	2339.61597	150.54568	1676.75427	2559.86743	143.79829	1658.14368	2465.94434	344.83920	1428.34021	2602.63745	76.84592	1285.15356	2489.28369	439.32709	1099.34167	2355.66138	402.99149	874.63110	2453.90674	-65.45729	1435.20569	2463.89233	-161.02090	1111.04419	2357.45020	-144.32866	877.19684	2394.93262	286.51151	961.40466	2391.17090	-1.71380	963.28168	2617.70483	137.02748	955.21692	2372.53223	248.53268	581.29944	2446.68677	304.98630	472.34619	2467.76563	238.19833	238.20932	2531.24121	319.47058	75.94469	2599.58789	260.87332	47.55211	2390.50122	301.15335	57.22804	2344.31079	32.69420	632.88812	2427.47705	-27.14631	473.77417	2428.07983	42.00125	327.66876	2521.29126	-37.42907	71.04715	2587.20215	19.17420	49.68027	2386.65210	-37.08547	56.38098	2343.51050	280.83850	56.27257	2382.90967	264.11472	63.19868	2482.43677	229.28831	64.69176	2559.03613	230.06351	49.93746	2569.23364	304.33109	50.24395	2490.48169	328.19431	43.96750	2426.32300	342.09064	44.77357	2339.32153	-13.14587	54.22261	2374.20532	-0.11495	58.59515	2465.30981	47.10950	58.96737	2549.67236	51.12840	48.50944	2561.59326	-21.27961	51.56603	2484.17676	-48.37583	38.52046	2428.65649	-65.00212	52.28356																																																	2927.73584	156.92055	-98.34386	999.07007	414.08585	469.21371	
